<svg width="30" height="23" viewBox="0 0 30 23" fill="none" xmlns="http://www.w3.org/2000/svg">
<path d="M27.6899 0H2.31013C1.03797 0 0 1.03797 0 2.31013V20.1835C0 21.4557 1.03797 22.4937 2.31013 22.4937H27.6899C28.962 22.4937 30 21.4557 30 20.1835V2.31013C30 1.03797 28.962 0 27.6899 0ZM27.3544 1.70886L15.1582 12.1392L2.96203 1.70886H27.3544ZM28.2911 20.1835C28.2911 20.5127 28.019 20.7848 27.6899 20.7848H2.31013C1.98101 20.7848 1.70886 20.5127 1.70886 20.1835V2.88608L14.6013 13.9114C14.6076 13.9177 14.6203 13.9241 14.6266 13.9304C14.6329 13.9367 14.6456 13.943 14.6519 13.9494C14.6709 13.962 14.6835 13.9747 14.7025 13.981C14.7089 13.9873 14.7152 13.9873 14.7215 13.9937C14.7468 14.0063 14.7722 14.019 14.7975 14.0316C14.8038 14.0316 14.8101 14.038 14.8165 14.038C14.8354 14.0443 14.8544 14.057 14.8797 14.0633C14.8861 14.0633 14.8987 14.0696 14.9051 14.0696C14.9241 14.0759 14.943 14.0823 14.962 14.0823C14.9684 14.0823 14.981 14.0886 14.9873 14.0886C15.0063 14.0949 15.0316 14.0949 15.0506 14.1013C15.057 14.1013 15.0633 14.1013 15.0696 14.1013C15.0949 14.1013 15.1266 14.1076 15.1519 14.1076C15.1772 14.1076 15.2089 14.1076 15.2342 14.1013C15.2405 14.1013 15.2468 14.1013 15.2532 14.1013C15.2722 14.1013 15.2975 14.0949 15.3165 14.0886C15.3228 14.0886 15.3354 14.0823 15.3418 14.0823C15.3608 14.0759 15.3797 14.0696 15.3987 14.0696C15.4051 14.0696 15.4177 14.0633 15.4241 14.0633C15.443 14.057 15.462 14.0506 15.4873 14.038C15.4937 14.038 15.5 14.0316 15.5063 14.0316C15.5316 14.019 15.557 14.0063 15.5823 13.9937C15.5886 13.9873 15.5949 13.9873 15.6013 13.981C15.6203 13.9684 15.6329 13.962 15.6519 13.9494C15.6582 13.943 15.6709 13.9367 15.6772 13.9304C15.6835 13.9241 15.6962 13.9177 15.7025 13.9114L28.2911 3.15823V20.1835Z" fill="#5695CB"/>
</svg>
