<svg width="56" height="80" viewBox="0 0 56 80" fill="none" xmlns="http://www.w3.org/2000/svg">
<path d="M5.30065 43.56H5.3327L4.84137 42.7908C2.11008 38.5151 0.5 33.4478 0.5 28C0.5 12.8121 12.8121 0.5 28 0.5C43.1879 0.5 55.5 12.8121 55.5 28C55.5 33.4479 53.8899 38.5152 51.1625 42.7911L50.672 43.56H50.699L27.9999 79.0718L27.7938 78.7496L26.0594 76.0372C24.5832 73.7288 22.5168 70.4969 20.1553 66.8032C15.5948 59.6699 9.9341 50.814 5.30065 43.56ZM15.5 28C15.5 34.9041 21.0959 40.5 28 40.5C34.9041 40.5 40.5 34.9041 40.5 28C40.5 21.0959 34.9041 15.5 28 15.5C21.0959 15.5 15.5 21.0959 15.5 28Z" fill="#5695CB"/>
<path d="M5.30065 43.56H5.3327L4.84137 42.7908C2.11008 38.5151 0.5 33.4478 0.5 28C0.5 12.8121 12.8121 0.5 28 0.5C43.1879 0.5 55.5 12.8121 55.5 28C55.5 33.4479 53.8899 38.5152 51.1625 42.7911L50.672 43.56H50.699L27.9999 79.0718L27.7938 78.7496L26.0594 76.0372C24.5832 73.7288 22.5168 70.4969 20.1553 66.8032C15.5948 59.6699 9.9341 50.814 5.30065 43.56ZM15.5 28C15.5 34.9041 21.0959 40.5 28 40.5C34.9041 40.5 40.5 34.9041 40.5 28C40.5 21.0959 34.9041 15.5 28 15.5C21.0959 15.5 15.5 21.0959 15.5 28Z" stroke="black"/>
<path d="M5.30065 43.56H5.3327L4.84137 42.7908C2.11008 38.5151 0.5 33.4478 0.5 28C0.5 12.8121 12.8121 0.5 28 0.5C43.1879 0.5 55.5 12.8121 55.5 28C55.5 33.4479 53.8899 38.5152 51.1625 42.7911L50.672 43.56H50.699L27.9999 79.0718L27.7938 78.7496L26.0594 76.0372C24.5832 73.7288 22.5168 70.4969 20.1553 66.8032C15.5948 59.6699 9.9341 50.814 5.30065 43.56ZM15.5 28C15.5 34.9041 21.0959 40.5 28 40.5C34.9041 40.5 40.5 34.9041 40.5 28C40.5 21.0959 34.9041 15.5 28 15.5C21.0959 15.5 15.5 21.0959 15.5 28Z" stroke="black" stroke-opacity="0.2"/>
<g filter="url(#filter0_d_221_1068)">
<circle cx="28" cy="28" r="13" fill="white"/>
<circle cx="28" cy="28" r="12.5" stroke="black"/>
<circle cx="28" cy="28" r="12.5" stroke="black" stroke-opacity="0.2"/>
</g>
<defs>
<filter id="filter0_d_221_1068" x="5" y="7" width="46" height="46" filterUnits="userSpaceOnUse" color-interpolation-filters="sRGB">
<feFlood flood-opacity="0" result="BackgroundImageFix"/>
<feColorMatrix in="SourceAlpha" type="matrix" values="0 0 0 0 0 0 0 0 0 0 0 0 0 0 0 0 0 0 127 0" result="hardAlpha"/>
<feOffset dy="2"/>
<feGaussianBlur stdDeviation="5"/>
<feComposite in2="hardAlpha" operator="out"/>
<feColorMatrix type="matrix" values="0 0 0 0 0 0 0 0 0 0 0 0 0 0 0 0 0 0 0.1 0"/>
<feBlend mode="normal" in2="BackgroundImageFix" result="effect1_dropShadow_221_1068"/>
<feBlend mode="normal" in="SourceGraphic" in2="effect1_dropShadow_221_1068" result="shape"/>
</filter>
</defs>
</svg>
