<svg width="230" height="80" viewBox="0 0 230 80" fill="none" xmlns="http://www.w3.org/2000/svg">
<path d="M100.164 57.7266H99.5156V52.416H102.899V53.0413H100.164V57.7266Z" fill="white"/>
<path d="M107.098 60.382V52.4161H107.734V53.3839C107.978 53.0527 108.281 52.7934 108.642 52.6043C109.004 52.4161 109.401 52.3216 109.833 52.3216C110.58 52.3216 111.204 52.5833 111.707 53.106C112.211 53.6295 112.462 54.2846 112.462 55.0714C112.462 55.8582 112.211 56.5134 111.707 57.0368C111.204 57.5595 110.58 57.8212 109.833 57.8212C108.937 57.8212 108.237 57.4674 107.734 56.7589V60.382H107.098ZM111.212 53.5721C110.827 53.1714 110.347 52.9703 109.774 52.9703C109.2 52.9703 108.72 53.1714 108.336 53.5721C107.951 53.9736 107.758 54.4736 107.758 55.0714C107.758 55.6692 107.951 56.1692 108.336 56.5699C108.72 56.9714 109.2 57.1717 109.774 57.1717C110.347 57.1717 110.827 56.9714 111.212 56.5699C111.597 56.1692 111.79 55.6692 111.79 55.0714C111.79 54.4736 111.597 53.9736 111.212 53.5721Z" fill="white"/>
<path d="M118.239 57.5731L116.07 52.416H116.754L118.57 56.7944L120.444 52.416H121.116L118.275 59.0247C117.905 59.9295 117.312 60.3819 116.495 60.3819H116.283V59.7566H116.495C117.044 59.7566 117.453 59.4384 117.721 58.801L118.239 57.5731Z" fill="white"/>
<path d="M125.258 57.7266V52.416H129.973V57.7266H129.325V53.0413H125.906V57.7266H125.258Z" fill="white"/>
<path d="M134.785 57.7266V52.416H139.501V57.7266H138.852V53.0413H135.433V57.7266H134.785Z" fill="white"/>
<path d="M144.735 57.0368C144.232 56.5134 143.98 55.8582 143.98 55.0714C143.98 54.2846 144.232 53.6295 144.735 53.106C145.239 52.5833 145.863 52.3216 146.61 52.3216C147.042 52.3216 147.439 52.4161 147.801 52.6043C148.162 52.7934 148.465 53.0527 148.709 53.3839V52.4161H149.357V57.7267H148.709V56.7589C148.206 57.4674 147.506 57.8212 146.61 57.8212C145.863 57.8212 145.239 57.5595 144.735 57.0368ZM148.113 53.5721C147.732 53.1714 147.254 52.9703 146.681 52.9703C146.107 52.9703 145.628 53.1714 145.243 53.5721C144.857 53.9736 144.665 54.4736 144.665 55.0714C144.665 55.6692 144.857 56.1692 145.243 56.5699C145.628 56.9714 146.107 57.1717 146.681 57.1717C147.254 57.1717 147.732 56.9714 148.113 56.5699C148.495 56.1692 148.685 55.6692 148.685 55.0714C148.685 54.4736 148.495 53.9736 148.113 53.5721Z" fill="white"/>
<path d="M160.735 57.7266L158.247 54.9768L160.523 52.416H161.324L159.061 54.9768L161.549 57.7266H160.735ZM158.024 57.7266H157.375V52.416H158.024V57.7266Z" fill="white"/>
<path d="M167.919 52.3218C168.697 52.3218 169.35 52.5835 169.876 53.1062C170.403 53.6296 170.666 54.2848 170.666 55.0716C170.666 55.8584 170.403 56.5135 169.876 57.037C169.35 57.5596 168.697 57.8214 167.919 57.8214C167.133 57.8214 166.477 57.5596 165.95 57.037C165.423 56.5135 165.16 55.8584 165.16 55.0716C165.16 54.2848 165.423 53.6296 165.95 53.1062C166.477 52.5835 167.133 52.3218 167.919 52.3218ZM166.434 53.5723C166.041 53.9737 165.844 54.4738 165.844 55.0716C165.844 55.6694 166.041 56.1694 166.434 56.5701C166.827 56.9716 167.318 57.1719 167.907 57.1719C168.504 57.1719 169 56.9716 169.393 56.5701C169.786 56.1694 169.983 55.6694 169.983 55.0716C169.983 54.4738 169.786 53.9737 169.393 53.5723C169 53.1716 168.504 52.9704 167.907 52.9704C167.318 52.9704 166.827 53.1716 166.434 53.5723Z" fill="white"/>
<path d="M175.793 57.7266H175.145V52.416H175.793L177.963 56.2281L180.132 52.416H180.78V57.7266H180.132V53.6665L178.163 57.1127H177.762L175.793 53.6665V57.7266Z" fill="white"/>
<path d="M185.594 57.7266V52.416H190.31V57.7266H189.661V53.0413H186.242V57.7266H185.594Z" fill="white"/>
<path d="M195.547 57.037C195.045 56.5135 194.793 55.8584 194.793 55.0716C194.793 54.2848 195.045 53.6296 195.547 53.1062C196.05 52.5835 196.676 52.3218 197.422 52.3218C197.855 52.3218 198.251 52.4163 198.613 52.6045C198.975 52.7935 199.277 53.0529 199.52 53.3841V52.4163H200.169V57.7269H199.52V56.7591C199.018 57.4676 198.318 57.8214 197.422 57.8214C196.676 57.8214 196.05 57.5596 195.547 57.037ZM198.926 53.5723C198.544 53.1716 198.067 52.9704 197.493 52.9704C196.919 52.9704 196.439 53.1716 196.054 53.5723C195.669 53.9737 195.476 54.4738 195.476 55.0716C195.476 55.6694 195.669 56.1694 196.054 56.5701C196.439 56.9716 196.919 57.1719 197.493 57.1719C198.067 57.1719 198.544 56.9716 198.926 56.5701C199.306 56.1694 199.497 55.6694 199.497 55.0716C199.497 54.4738 199.306 53.9737 198.926 53.5723Z" fill="white"/>
<path d="M205.614 57.7266H204.965V52.416H205.614V54.7054H209.103V52.416H209.752V57.7266H209.103V55.3427L205.614 55.3306V57.7266Z" fill="white"/>
<path d="M218.74 53.5017L215.121 57.7266H214.566V52.416H215.215V56.653L218.835 52.416H219.389V57.7266H218.74V53.5017Z" fill="white"/>
<path d="M228.361 53.5019L224.741 57.7268H224.188V52.4162H224.836V56.6532L228.455 52.4162H229.008V57.7268H228.361V53.5019ZM224.894 49.6777H225.472C225.472 49.9685 225.576 50.2085 225.785 50.3975C225.993 50.5865 226.258 50.681 226.58 50.681C226.903 50.681 227.168 50.5865 227.377 50.3975C227.584 50.2085 227.688 49.9685 227.688 49.6777H228.266C228.266 50.118 228.105 50.4904 227.783 50.7933C227.461 51.0963 227.06 51.2473 226.58 51.2473C226.101 51.2473 225.7 51.0963 225.378 50.7933C225.055 50.4904 224.894 50.118 224.894 49.6777Z" fill="white"/>
<path opacity="0.3" fill-rule="evenodd" clip-rule="evenodd" d="M228.452 46.9526H98.9082V45.7297H228.452V46.9526Z" fill="white"/>
<path d="M117.301 25.5543V27.2467H113.34V25.7571H103.047V28.9391H113.567C114.593 28.9391 115.472 29.305 116.204 30.0369C116.935 30.7696 117.301 31.6493 117.301 32.676V36.2619C117.301 37.2895 116.935 38.1692 116.204 38.901C115.472 39.6337 114.593 39.9997 113.567 39.9997H102.871C101.844 39.9997 100.965 39.6378 100.234 38.914C99.5023 38.1902 99.1367 37.3064 99.1367 36.2619V34.5704H103.047V36.06H113.34V32.878H102.871C101.844 32.878 100.965 32.5161 100.234 31.7923C99.5023 31.0685 99.1367 30.1847 99.1367 29.141V25.5543C99.1367 24.5106 99.5023 23.6269 100.234 22.9031C100.965 22.1793 101.844 21.8174 102.871 21.8174H113.567C114.593 21.8174 115.472 22.1833 116.204 22.916C116.935 23.6479 117.301 24.5276 117.301 25.5543Z" fill="white"/>
<path d="M146.289 25.5543V27.2717H142.328V25.7571H132.035V36.06H142.328V33.3328H138.392V29.3931H146.289V36.2619C146.289 37.2895 145.923 38.1692 145.191 38.901C144.46 39.6337 143.572 39.9997 142.53 39.9997H131.859C130.815 39.9997 129.933 39.6378 129.21 38.914C128.487 38.1902 128.125 37.3064 128.125 36.2619V25.5543C128.125 24.5106 128.487 23.6269 129.21 22.9031C129.933 22.1793 130.815 21.8174 131.859 21.8174H142.53C143.572 21.8174 144.46 22.1833 145.191 22.916C145.923 23.6479 146.289 24.5276 146.289 25.5543Z" fill="white"/>
<path d="M167.199 25.5799V30.2765C167.199 31.3041 166.829 32.1838 166.089 32.9156C165.349 33.6483 164.466 34.0143 163.44 34.0143H163.264L167.199 38.6608V39.9994H163.162L158.142 34.0143L152.946 34.0393C152.996 34.0393 153.021 34.0902 153.021 34.1912C152.987 34.1912 152.962 34.1831 152.946 34.1661V39.9994H149.035V21.8421H163.44C164.466 21.8421 165.349 22.2081 166.089 22.9407C166.829 23.6726 167.199 24.5523 167.199 25.5799ZM152.946 25.7568V30.0746H163.238V25.7568H152.946Z" fill="white"/>
<path d="M173.557 21.8174H184.254C185.28 21.8174 186.159 22.1833 186.89 22.916C187.622 23.6479 187.988 24.5276 187.988 25.5543V36.2619C187.988 37.2895 187.622 38.1692 186.89 38.901C186.159 39.6337 185.28 39.9997 184.254 39.9997H173.557C172.515 39.9997 171.632 39.6378 170.909 38.914C170.186 38.1902 169.824 37.3064 169.824 36.2619V25.5543C169.824 24.5106 170.186 23.6269 170.909 22.9031C171.632 22.1793 172.515 21.8174 173.557 21.8174ZM173.734 25.7571V36.06H184.027V25.7571H173.734Z" fill="white"/>
<path d="M194.625 21.8174V36.06H204.918V21.8174H208.878V36.2619C208.878 37.2895 208.513 38.1692 207.782 38.901C207.05 39.6337 206.171 39.9997 205.145 39.9997H194.449C193.406 39.9997 192.523 39.6378 191.8 38.914C191.076 38.1902 190.715 37.3064 190.715 36.2619V21.8174H194.625Z" fill="white"/>
<path d="M211.652 21.8423H226.058C227.083 21.8423 227.967 22.2082 228.706 22.9409C229.447 23.6728 229.817 24.5525 229.817 25.58V30.2767C229.817 31.3042 229.447 32.1839 228.706 32.9158C227.967 33.6485 227.083 34.0144 226.058 34.0144L215.564 34.0395C215.614 34.0395 215.639 34.0904 215.639 34.1914C215.605 34.1914 215.58 34.1833 215.564 34.1663V39.9995H211.652V21.8423ZM215.564 25.757V30.0747H225.856V25.757H215.564Z" fill="white"/>
<path fill-rule="evenodd" clip-rule="evenodd" d="M34.8441 32.0556L34.7802 32.012L27.8109 28.024L20.8427 24.036L13.8735 20.0272L20.8427 16.0382L27.8109 12.0502L41.8133 3.94537L34.908 0L27.8109 4.05144L20.8427 8.06124L17.4445 9.99229L13.8735 12.0502L6.96821 15.9956V16.0808L6.90429 16.0382L0 20.0054V20.0688L6.96821 24.0568L13.9374 28.0448L20.9066 32.0556L27.8749 36.0436L34.8441 40.0316L34.908 40.0742C46.6439 33.3493 58.166 26.7304 69.817 20.0688V20.0054C63.8956 16.6102 58.3588 13.4271 52.3515 9.99229L48.7186 7.91254C41.5995 12.2832 34.887 15.9738 27.8109 20.0272L34.908 24.1004C39.5908 21.4061 44.2706 18.7316 48.9743 16.0382L55.9435 20.0272C48.9743 24.036 42.0051 28.024 35.0369 32.012L34.908 32.0754L34.8441 32.0556Z" fill="#B7E1F4"/>
<path fill-rule="evenodd" clip-rule="evenodd" d="M41.8148 3.94531C32.4942 9.29138 23.1946 14.6801 13.875 20.0271L27.8124 28.0239L34.9095 32.0754C41.9217 28.0666 48.9328 24.0568 55.945 20.0271L48.9758 16.0382C44.272 18.7315 39.5923 21.406 34.9095 24.1004C32.5372 22.7413 30.1638 21.3842 27.8124 20.0271C32.4732 17.3526 37.133 14.6801 41.8148 12.0075V3.94531Z" fill="#223E59"/>
<path fill-rule="evenodd" clip-rule="evenodd" d="M27.8125 20.0269V28.0237L34.9096 32.0751V24.1001C32.5372 22.741 30.1639 21.3839 27.8125 20.0269Z" fill="#1B89C5"/>
<path fill-rule="evenodd" clip-rule="evenodd" d="M34.9102 40.0742V48.0502L34.9321 48.0294L69.8192 28.0448V20.0688C62.8499 24.0568 55.8817 28.0448 48.9125 32.0556L34.9531 40.0316L34.9102 40.0742Z" fill="#47C0E7"/>
<path fill-rule="evenodd" clip-rule="evenodd" d="M6.96821 40.0318V32.0558L34.908 48.0504V40.0744C23.322 33.3276 11.629 26.7305 0 20.069V44.0198C11.5861 50.6813 23.258 57.3646 34.8661 64.0043L34.908 64.0252V56.0482L34.8661 56.0274L6.96821 40.0318Z" fill="#1B89C5"/>
<path fill-rule="evenodd" clip-rule="evenodd" d="M34.9102 80.0004L41.8154 76.0332L69.8192 59.995C69.8192 51.9972 69.8192 43.9776 69.8192 35.959C58.1682 42.6413 46.5611 49.3673 34.9321 56.0278L34.9102 56.0486V64.0256L62.7221 48.0935V56.0704L34.9102 72.0234V80.0004Z" fill="#47C0E7"/>
<path fill-rule="evenodd" clip-rule="evenodd" d="M0 52.0182V59.9942L34.908 79.9996V72.0226L0 52.0182Z" fill="#1B89C5"/>
<path fill-rule="evenodd" clip-rule="evenodd" d="M41.8133 68.0548L62.7199 56.0691V48.0921L55.8796 52.0176L41.8133 60.0789L34.908 64.0242L34.8441 63.9826L13.9374 52.0176L6.96821 48.0286L0 52.0176L6.96821 56.0056L34.908 72.022L41.8133 68.0548Z" fill="#223E59"/>
<path fill-rule="evenodd" clip-rule="evenodd" d="M6.96875 32.0553V40.0313C16.2474 45.3566 25.6099 50.7235 34.9085 56.0477L69.8176 35.9581L62.9133 32.0117C53.5717 37.3588 44.2291 42.7039 34.9085 48.0499C25.589 42.7257 16.2684 37.3796 6.96875 32.0553Z" fill="#223E59"/>
</svg>
