<svg width="30" height="30" viewBox="0 0 30 30" fill="none" xmlns="http://www.w3.org/2000/svg">
<path d="M26.2237 13.1119C26.2237 5.87063 20.3531 0 13.1119 0C5.87069 0 0 5.87063 0 13.1119C0 20.3532 5.87063 26.2238 13.1119 26.2238C16.395 26.2238 19.3884 25.0088 21.6891 23.0147L28.6744 30L30 28.6744L23.0147 21.6891C25.0087 19.3884 26.2237 16.395 26.2237 13.1119ZM13.1119 24.3487C6.91598 24.3487 1.87506 19.3078 1.87506 13.1118C1.87506 6.91586 6.91592 1.875 13.1119 1.875C19.3079 1.875 24.3488 6.91592 24.3488 13.1119C24.3488 19.3079 19.3078 24.3487 13.1119 24.3487Z" fill="white"/>
</svg>
