<svg width="161" height="150" viewBox="0 0 161 150" fill="none" xmlns="http://www.w3.org/2000/svg">
<path d="M1.53923 146.743H0.743408V140.229H4.89374V140.996H1.53923V146.743Z" fill="#223E59"/>
<path d="M10.0436 150V140.229H10.8246V141.416C11.1235 141.01 11.4947 140.692 11.9382 140.46C12.3816 140.229 12.8686 140.113 13.3982 140.113C14.3147 140.113 15.0808 140.434 15.6975 141.075C16.3152 141.718 16.623 142.521 16.623 143.486C16.623 144.451 16.3152 145.255 15.6975 145.897C15.0808 146.538 14.3147 146.859 13.3982 146.859C12.2994 146.859 11.4413 146.425 10.8246 145.556V150H10.0436ZM15.0907 141.647C14.6176 141.156 14.0297 140.909 13.3259 140.909C12.6221 140.909 12.0342 141.156 11.562 141.647C11.0899 142.14 10.8533 142.753 10.8533 143.486C10.8533 144.219 11.0899 144.833 11.562 145.324C12.0342 145.817 12.6221 146.062 13.3259 146.062C14.0297 146.062 14.6176 145.817 15.0907 145.324C15.5629 144.833 15.7995 144.219 15.7995 143.486C15.7995 142.753 15.5629 142.14 15.0907 141.647Z" fill="#223E59"/>
<path d="M23.7111 146.555L21.0504 140.229H21.8888L24.1159 145.6L26.4153 140.229H27.2398L23.7546 148.335C23.3013 149.445 22.5738 150 21.5711 150H21.3107V149.233H21.5711C22.2451 149.233 22.747 148.843 23.0746 148.061L23.7111 146.555Z" fill="#223E59"/>
<path d="M32.3175 146.743V140.229H38.101V146.743H37.3062V140.996H33.1123V146.743H32.3175Z" fill="#223E59"/>
<path d="M44.0033 146.743V140.229H49.7878V146.743H48.992V140.996H44.7981V146.743H44.0033Z" fill="#223E59"/>
<path d="M56.2102 145.897C55.5936 145.255 55.2847 144.451 55.2847 143.486C55.2847 142.521 55.5936 141.718 56.2102 141.075C56.8279 140.434 57.594 140.113 58.5096 140.113C59.0401 140.113 59.5271 140.229 59.9706 140.46C60.414 140.692 60.7852 141.01 61.0841 141.416V140.229H61.8799V146.743H61.0841V145.556C60.4674 146.425 59.6093 146.859 58.5096 146.859C57.594 146.859 56.8279 146.538 56.2102 145.897ZM60.3536 141.647C59.8864 141.156 59.3004 140.909 58.5967 140.909C57.8929 140.909 57.305 141.156 56.8328 141.647C56.3597 142.14 56.1241 142.753 56.1241 143.486C56.1241 144.219 56.3597 144.833 56.8328 145.324C57.305 145.817 57.8929 146.062 58.5967 146.062C59.3004 146.062 59.8864 145.817 60.3536 145.324C60.8218 144.833 61.0554 144.219 61.0554 143.486C61.0554 142.753 60.8218 142.14 60.3536 141.647Z" fill="#223E59"/>
<path d="M75.8361 146.743L72.7845 143.37L75.5758 140.229H76.5587L73.7822 143.37L76.8338 146.743H75.8361ZM72.5103 146.743H71.7145V140.229H72.5103V146.743Z" fill="#223E59"/>
<path d="M84.6446 140.113C85.5988 140.113 86.3995 140.434 87.0449 141.075C87.6913 141.718 88.0139 142.521 88.0139 143.486C88.0139 144.451 87.6913 145.255 87.0449 145.897C86.3995 146.538 85.5988 146.859 84.6446 146.859C83.6805 146.859 82.8758 146.538 82.2294 145.897C81.5831 145.255 81.2604 144.451 81.2604 143.486C81.2604 142.521 81.5831 141.718 82.2294 141.075C82.8758 140.434 83.6805 140.113 84.6446 140.113ZM82.8223 141.647C82.3403 142.14 82.0988 142.753 82.0988 143.486C82.0988 144.219 82.3403 144.833 82.8223 145.324C83.3044 145.817 83.9072 146.062 84.6297 146.062C85.3622 146.062 85.97 145.817 86.452 145.324C86.934 144.833 87.1756 144.219 87.1756 143.486C87.1756 142.753 86.934 142.14 86.452 141.647C85.97 141.156 85.3622 140.909 84.6297 140.909C83.9072 140.909 83.3044 141.156 82.8223 141.647Z" fill="#223E59"/>
<path d="M94.3063 146.743H93.5104V140.229H94.3063L96.9669 144.905L99.6275 140.229H100.423V146.743H99.6275V141.763L97.2134 145.99H96.7214L94.3063 141.763V146.743Z" fill="#223E59"/>
<path d="M106.326 146.743V140.229H112.11V146.743H111.314V140.996H107.121V146.743H106.326Z" fill="#223E59"/>
<path d="M118.532 145.897C117.915 145.255 117.607 144.451 117.607 143.486C117.607 142.521 117.915 141.718 118.532 141.075C119.149 140.434 119.916 140.113 120.831 140.113C121.362 140.113 121.848 140.229 122.292 140.46C122.736 140.692 123.107 141.01 123.405 141.416V140.229H124.201V146.743H123.405V145.556C122.788 146.425 121.93 146.859 120.831 146.859C119.916 146.859 119.149 146.538 118.532 145.897ZM122.675 141.647C122.207 141.156 121.622 140.909 120.918 140.909C120.215 140.909 119.626 141.156 119.154 141.647C118.681 142.14 118.445 142.753 118.445 143.486C118.445 144.219 118.681 144.833 119.154 145.324C119.626 145.817 120.215 146.062 120.918 146.062C121.622 146.062 122.207 145.817 122.675 145.324C123.143 144.833 123.376 144.219 123.376 143.486C123.376 142.753 123.143 142.14 122.675 141.647Z" fill="#223E59"/>
<path d="M130.884 146.743H130.089V140.229H130.884V143.037H135.164V140.229H135.96V146.743H135.164V143.819L130.884 143.804V146.743Z" fill="#223E59"/>
<path d="M146.981 141.561L142.541 146.743H141.861V140.229H142.657V145.426L147.096 140.229H147.776V146.743H146.981V141.561Z" fill="#223E59"/>
<path d="M158.783 141.561L154.343 146.743H153.664V140.229H154.46V145.426L158.898 140.229H159.577V146.743H158.783V141.561ZM154.531 136.87H155.24C155.24 137.227 155.367 137.521 155.623 137.753C155.878 137.985 156.204 138.101 156.599 138.101C156.995 138.101 157.32 137.985 157.576 137.753C157.83 137.521 157.958 137.227 157.958 136.87H158.667C158.667 137.41 158.47 137.867 158.075 138.239C157.679 138.61 157.188 138.796 156.599 138.796C156.011 138.796 155.519 138.61 155.124 138.239C154.728 137.867 154.531 137.41 154.531 136.87Z" fill="#223E59"/>
<path opacity="0.3" fill-rule="evenodd" clip-rule="evenodd" d="M158.895 132.768H0V132.029H158.895V132.768Z" fill="#223E59"/>
<path d="M22.5613 107.282V109.358H17.7023V107.531H5.07805V111.434H17.9814C19.2395 111.434 20.3174 111.883 21.2151 112.781C22.1119 113.679 22.5613 114.758 22.5613 116.018V120.416C22.5613 121.676 22.1119 122.756 21.2151 123.653C20.3174 124.552 19.2395 125.001 17.9814 125.001H4.86128C3.60223 125.001 2.52431 124.557 1.62753 123.669C0.729762 122.781 0.281372 121.697 0.281372 120.416V118.341H5.07805V120.168H17.7023V116.265H4.86128C3.60223 116.265 2.52431 115.822 1.62753 114.934C0.729762 114.046 0.281372 112.962 0.281372 111.682V107.282C0.281372 106.002 0.729762 104.918 1.62753 104.031C2.52431 103.143 3.60223 102.699 4.86128 102.699H17.9814C19.2395 102.699 20.3174 103.148 21.2151 104.046C22.1119 104.944 22.5613 106.023 22.5613 107.282Z" fill="#223E59"/>
<path d="M58.1146 107.282V109.389H53.2566V107.531H40.6314V120.168H53.2566V116.823H48.4292V111.991H58.1146V120.416C58.1146 121.676 57.6662 122.756 56.7685 123.653C55.8717 124.552 54.7829 125.001 53.504 125.001H40.4156C39.1358 125.001 38.0529 124.557 37.166 123.669C36.2791 122.781 35.8357 121.697 35.8357 120.416V107.282C35.8357 106.002 36.2791 104.918 37.166 104.031C38.0529 103.143 39.1358 102.699 40.4156 102.699H53.504C54.7829 102.699 55.8717 103.148 56.7685 104.046C57.6662 104.944 58.1146 106.023 58.1146 107.282Z" fill="#223E59"/>
<path d="M83.7665 107.314V113.075C83.7665 114.335 83.3131 115.414 82.4055 116.312C81.4978 117.211 80.4149 117.66 79.1559 117.66H78.9401L83.7665 123.359V125.001H78.8154L72.6577 117.66L66.2842 117.69C66.3456 117.69 66.3763 117.753 66.3763 117.877C66.3347 117.877 66.304 117.867 66.2842 117.846V125.001H61.4875V102.73H79.1559C80.4149 102.73 81.4978 103.178 82.4055 104.077C83.3131 104.975 83.7665 106.054 83.7665 107.314ZM66.2842 107.531V112.827H78.9084V107.531H66.2842Z" fill="#223E59"/>
<path d="M91.5645 102.699H104.685C105.944 102.699 107.022 103.148 107.918 104.046C108.816 104.944 109.265 106.023 109.265 107.282V120.416C109.265 121.676 108.816 122.756 107.918 123.653C107.022 124.552 105.944 125.001 104.685 125.001H91.5645C90.2857 125.001 89.2028 124.557 88.3159 123.669C87.429 122.781 86.9856 121.697 86.9856 120.416V107.282C86.9856 106.002 87.429 104.918 88.3159 104.031C89.2028 103.143 90.2857 102.699 91.5645 102.699ZM91.7813 107.531V120.168H104.406V107.531H91.7813Z" fill="#223E59"/>
<path d="M117.403 102.699V120.168H130.027V102.699H134.885V120.416C134.885 121.676 134.437 122.756 133.54 123.653C132.642 124.552 131.564 125.001 130.306 125.001H117.186C115.907 125.001 114.825 124.557 113.938 123.669C113.05 122.781 112.606 121.697 112.606 120.416V102.699H117.403Z" fill="#223E59"/>
<path d="M138.289 102.73H155.959C157.217 102.73 158.301 103.178 159.207 104.077C160.116 104.975 160.569 106.054 160.569 107.314V113.075C160.569 114.335 160.116 115.414 159.207 116.312C158.301 117.211 157.217 117.66 155.959 117.66L143.087 117.69C143.148 117.69 143.179 117.753 143.179 117.877C143.137 117.877 143.107 117.867 143.087 117.846V125.001H138.289V102.73ZM143.087 107.531V112.827H155.711V107.531H143.087Z" fill="#223E59"/>
<path fill-rule="evenodd" clip-rule="evenodd" d="M76.6151 32.0409L76.5517 31.9973L69.6457 28.0112L62.7407 24.025L55.8347 20.018L62.7407 16.0309L69.6457 12.0447L83.5211 3.94356L76.6784 0L69.6457 4.04958L62.7407 8.05755L59.3734 9.98771L55.8347 12.0447L48.9921 15.9883V16.0735L48.9288 16.0309L42.0871 19.9962V20.0597L48.9921 24.0458L55.8981 28.032L62.8041 32.0409L69.7091 36.0271L76.6151 40.0133L76.6784 40.0559C88.3079 33.334 99.7255 26.7181 111.271 20.0597V19.9962C105.403 16.6026 99.9165 13.421 93.9637 9.98771L90.3637 7.90892C83.3093 12.2776 76.6576 15.9665 69.6457 20.018L76.6784 24.0894C81.3187 21.3963 85.9561 18.723 90.6171 16.0309L97.5231 20.018C90.6171 24.025 83.7111 28.0112 76.8061 31.9973L76.6784 32.0608L76.6151 32.0409Z" fill="#B7E1F4"/>
<path fill-rule="evenodd" clip-rule="evenodd" d="M83.5209 3.94356C74.2849 9.28718 65.0696 14.6734 55.8346 20.018L69.6456 28.0112L76.6783 32.0608C83.6268 28.0538 90.5744 24.0458 97.523 20.018L90.617 16.0309C85.9559 18.723 81.3186 21.3963 76.6783 24.0894C74.3275 22.731 71.9756 21.3745 69.6456 20.018C74.2641 17.3447 78.8816 14.6734 83.5209 12.0021V3.94356Z" fill="#223E59"/>
<path fill-rule="evenodd" clip-rule="evenodd" d="M69.6459 20.018V28.0112L76.6786 32.0608V24.0894C74.3278 22.731 71.976 21.3745 69.6459 20.018Z" fill="#1B89C5"/>
<path fill-rule="evenodd" clip-rule="evenodd" d="M76.6787 40.0559V48.0282L76.7005 48.0074L111.271 28.032V20.0597C104.365 24.0458 97.46 28.032 90.554 32.0409L76.7213 40.0133L76.6787 40.0559Z" fill="#47C0E7"/>
<path fill-rule="evenodd" clip-rule="evenodd" d="M48.992 40.0133V32.0409L76.6784 48.0282V40.0559C65.1974 33.3122 53.6106 26.7181 42.087 20.0597V43.9994C53.568 50.6579 65.1341 57.3382 76.6368 63.9749L76.6784 63.9957V56.0224L76.6368 56.0016L48.992 40.0133Z" fill="#1B89C5"/>
<path fill-rule="evenodd" clip-rule="evenodd" d="M76.6787 79.9631L83.5214 75.9978L111.271 59.9669C111.271 51.9728 111.271 43.9568 111.271 35.9419C99.7257 42.6212 88.224 49.3441 76.7005 56.0015L76.6787 56.0223V63.9957L104.238 48.0708V56.0441L76.6787 71.9898V79.9631Z" fill="#47C0E7"/>
<path fill-rule="evenodd" clip-rule="evenodd" d="M42.087 51.9946V59.9669L76.6784 79.9631V71.9898L42.087 51.9946Z" fill="#1B89C5"/>
<path fill-rule="evenodd" clip-rule="evenodd" d="M83.521 68.0245L104.238 56.0442V48.0708L97.4597 51.9946L83.521 60.0521L76.6784 63.9957L76.615 63.9541L55.898 51.9946L48.992 48.0074L42.087 51.9946L48.992 55.9807L76.6784 71.9898L83.521 68.0245Z" fill="#223E59"/>
<path fill-rule="evenodd" clip-rule="evenodd" d="M48.9922 32.0409V40.0133C58.1867 45.3361 67.4643 50.7005 76.6786 56.0223L111.271 35.9419L104.429 31.9973C95.1724 37.342 85.9146 42.6846 76.6786 48.0282C67.4435 42.7064 58.2075 37.3628 48.9922 32.0409Z" fill="#223E59"/>
</svg>
