<svg width="30" height="30" viewBox="0 0 30 30" fill="none" xmlns="http://www.w3.org/2000/svg">
<path fill-rule="evenodd" clip-rule="evenodd" d="M21.0354 16.0337C20.222 15.628 19.5764 15.9063 19.3092 16.1759C19.2742 16.2109 19.2426 16.2493 19.2151 16.2905C18.8363 16.8588 18.3993 17.4151 18.022 17.8352C17.8332 18.0454 17.6617 18.2189 17.5219 18.3421C17.4518 18.4037 17.3923 18.4504 17.3446 18.4822C17.3246 18.4956 17.308 18.5055 17.2947 18.5124C17.2702 18.505 17.2366 18.4931 17.193 18.4752C17.1202 18.4454 17.0291 18.4031 16.9214 18.3483C16.7062 18.2388 16.4315 18.0828 16.1166 17.8867C15.487 17.4945 14.703 16.9456 13.9214 16.2948C13.1232 15.6296 12.4772 14.9819 12.014 14.3962C11.5821 13.85 11.3209 13.3722 11.2316 12.9937C12.2214 11.9625 12.6211 11.2609 12.6211 10.4416C12.6211 10.3148 12.5855 10.1561 12.5337 9.98692C12.4805 9.81369 12.4053 9.61397 12.3156 9.39952C12.1361 8.97038 11.8945 8.47199 11.6437 7.99027C11.3927 7.50819 11.1312 7.04004 10.9111 6.67081C10.8011 6.4863 10.7007 6.32531 10.6167 6.1991C10.5359 6.07771 10.4617 5.97529 10.4055 5.91908C10.1937 5.70771 9.8709 5.60509 9.47984 5.5778C9.0854 5.55027 8.59449 5.59738 8.01452 5.71297C7.86906 5.74236 7.73454 5.81401 7.62907 5.91873C7.55243 5.99536 6.69108 6.8736 6.04346 8.24417C5.39499 9.61656 4.95423 11.4977 5.74796 13.5616C6.60249 15.7832 8.12431 18.1812 10.1308 20.1298C12.1373 22.0784 14.6383 23.5867 17.4518 24.0088C18.0881 24.104 18.6865 24.1516 19.2484 24.1516C20.9061 24.1516 22.2466 23.7341 23.2433 22.8828C24.2398 22.0316 24.8703 20.7657 25.1456 19.1125C25.199 18.7972 25.0469 18.4833 24.7678 18.3286C23.7225 17.7482 22.8317 17.1657 22.1782 16.7384L22.172 16.7344C21.6804 16.4133 21.3104 16.1718 21.0354 16.0337ZM22.1308 21.8606C21.2729 22.5037 19.9061 22.8504 17.6759 22.5154C14.8065 22.0852 12.459 20.4471 10.6832 18.5402C8.90727 16.6332 7.71549 14.47 7.15745 13.0195C6.61817 11.618 6.84338 10.289 7.27399 9.22896C7.68251 8.22333 8.27184 7.47094 8.54756 7.15143C8.73223 7.12211 8.9182 7.1011 9.08024 7.08995C9.21415 7.08073 9.32428 7.07881 9.40188 7.08262C9.60537 7.38822 9.99714 8.0877 10.3596 8.78999C10.5547 9.16796 10.7387 9.54188 10.8773 9.84858C10.9466 10.0021 11.0038 10.1369 11.045 10.2461C11.0841 10.3496 11.1044 10.4183 11.111 10.4552C11.1087 10.6758 11.0407 11.0535 9.90812 12.1867C9.76581 12.3283 9.68661 12.5203 9.68661 12.7208C9.68661 13.527 10.1088 14.3851 10.7245 15.2037C11.3436 16.0269 12.1769 16.8345 13.04 17.5439C13.9037 18.2539 14.8029 18.8702 15.5584 19.31C15.936 19.5298 16.2803 19.707 16.5682 19.8299C16.8478 19.9493 17.0987 20.0285 17.2792 20.0285C17.5714 20.0285 17.8674 19.9068 18.1477 19.7284C18.4301 19.5487 18.7126 19.3011 18.9817 19.0254C19.485 18.5098 19.9574 17.8792 20.3128 17.3626C20.3269 17.3683 20.3427 17.3755 20.3601 17.3843C20.5533 17.4814 20.8974 17.7054 21.3523 18.0029C21.921 18.3746 22.6723 18.8653 23.5574 19.3779C23.3432 20.3306 22.9528 21.2446 22.1308 21.8606Z" fill="white"/>
<path fill-rule="evenodd" clip-rule="evenodd" d="M15 30C12.2934 30 9.65265 29.2748 7.3403 27.8992L1.54655 29.6813C1.2851 29.7614 0.998676 29.6934 0.800391 29.5027C0.601505 29.3114 0.523821 29.0272 0.596269 28.7615L0.596674 28.76L0.597659 28.7565L0.777198 28.1C0.887052 27.6986 1.03856 27.1459 1.20799 26.5304C1.53822 25.3308 1.93678 23.8918 2.22792 22.8697C0.768719 20.5072 0 17.7938 0 15C0 6.72849 6.72849 0 15 0C23.2715 0 30 6.72849 30 15C30 23.2715 23.2715 30 15 30ZM7.44331 26.3231C7.36817 26.3231 7.29374 26.3345 7.22223 26.3561L2.41587 27.8355C2.80285 26.4247 3.4093 24.2255 3.77226 22.9606C3.83274 22.7505 3.79866 22.5242 3.68033 22.3411C2.26063 20.1565 1.50997 17.6179 1.50997 15C1.50997 7.5621 7.5621 1.50997 15 1.50997C22.4379 1.50997 28.49 7.5621 28.49 15C28.49 22.4379 22.4379 28.49 15 28.49C12.4597 28.49 9.98555 27.7801 7.84422 26.438C7.72217 26.3614 7.58251 26.3231 7.44331 26.3231Z" fill="white"/>
</svg>
